<?xml version="1.0" standalone="no"?>
<!DOCTYPE svg PUBLIC "-//W3C//DTD SVG 20010904//EN"
 "http://www.w3.org/TR/2001/REC-SVG-20010904/DTD/svg10.dtd">
<svg version="1.0" xmlns="http://www.w3.org/2000/svg"
 width="500.000000pt" height="500.000000pt" viewBox="0 0 500.000000 500.000000"
 preserveAspectRatio="xMidYMid meet">

<g transform="translate(0.000000,500.000000) scale(0.100000,-0.100000)"
fill="#000000" stroke="none">
<path d="M2390 4193 c63 -20 90 -56 90 -119 0 -21 -8 -47 -17 -58 l-17 -21 22
21 c27 24 38 78 23 116 -12 31 -65 68 -96 67 -14 0 -15 -2 -5 -6z"/>
<path d="M2720 4183 c8 -3 25 -15 38 -26 17 -16 22 -17 22 -5 0 15 -40 39 -63
37 -7 0 -5 -3 3 -6z"/>
<path d="M2160 4161 c0 -5 5 -13 10 -16 6 -3 10 -2 10 4 0 5 -4 13 -10 16 -5
3 -10 2 -10 -4z"/>
<path d="M2299 4139 c-18 -34 -4 -100 26 -126 14 -13 33 -23 41 -23 10 0 4 9
-15 26 -36 30 -54 84 -41 120 12 30 5 31 -11 3z"/>
<path d="M2090 4148 c0 -2 9 -37 20 -78 11 -41 20 -85 20 -97 0 -14 6 -23 16
-23 11 0 14 5 10 17 -4 9 -16 54 -28 100 -11 46 -24 83 -29 83 -5 0 -9 -1 -9
-2z"/>
<path d="M2610 4131 c-20 -39 -12 -91 19 -122 16 -16 38 -29 48 -28 15 0 14 2
-4 9 -37 15 -55 54 -51 110 1 27 2 50 1 50 -1 0 -7 -9 -13 -19z"/>
<path d="M2905 4083 c-10 -38 -23 -82 -31 -100 -10 -26 -10 -32 2 -37 8 -3 14
1 14 9 0 8 11 54 25 101 29 98 28 94 16 94 -4 0 -16 -30 -26 -67z"/>
<path d="M2030 4123 c0 -10 4 -14 8 -8 4 6 11 13 16 18 5 4 2 7 -7 7 -10 0
-17 -8 -17 -17z"/>
<path d="M2994 4114 c19 -18 21 -45 4 -62 -9 -9 -9 -12 0 -12 7 0 18 11 24 25
9 21 8 28 -7 45 -10 11 -22 20 -27 20 -5 0 -2 -7 6 -16z"/>
<path d="M1859 4060 c43 -10 91 -58 101 -101 8 -32 8 -33 9 -6 2 63 -49 118
-109 116 l-35 -1 34 -8z"/>
<path d="M2758 4025 c-3 -27 -1 -32 9 -23 15 12 18 58 4 58 -5 0 -11 -16 -13
-35z"/>
<path d="M2958 4028 c8 -9 17 -38 20 -64 4 -26 13 -49 20 -52 9 -3 10 3 2 23
-5 14 -10 37 -10 49 0 13 -10 31 -22 42 -17 14 -19 15 -10 2z"/>
<path d="M3220 3946 c0 -52 -3 -101 -6 -109 -3 -8 1 -17 8 -19 10 -4 14 20 16
108 2 74 -1 114 -8 114 -6 0 -10 -36 -10 -94z"/>
<path d="M1761 3977 c-2 -71 44 -118 112 -116 l32 1 -30 7 c-67 16 -92 43
-106 111 l-7 35 -1 -38z"/>
<path d="M1595 3940 c-3 -5 -2 -10 3 -10 11 0 102 -135 102 -151 0 -6 5 -9 11
-7 15 5 11 15 -45 100 -51 78 -60 86 -71 68z"/>
<path d="M3410 3930 c0 -6 -23 -45 -51 -86 -28 -42 -48 -78 -45 -81 3 -4 7 -4
9 -2 34 43 114 169 109 173 -9 10 -22 7 -22 -4z"/>
<path d="M3081 3901 c-8 -5 -9 -11 -3 -15 5 -3 12 1 16 9 6 17 6 18 -13 6z"/>
<path d="M3478 3888 c18 -23 5 -66 -27 -83 -15 -8 -20 -14 -11 -15 50 -1 80
72 43 101 -16 13 -17 12 -5 -3z"/>
<path d="M1480 3861 c0 -6 5 -13 11 -17 6 -3 33 -39 59 -80 26 -40 50 -71 53
-67 3 3 -19 43 -50 89 -51 77 -73 99 -73 75z"/>
<path d="M3608 3780 c-1 -5 -31 -38 -66 -74 -34 -35 -59 -67 -54 -70 9 -6 151
142 143 149 -7 8 -19 6 -23 -5z"/>
<path d="M1346 3751 c-4 -5 3 -7 13 -4 45 12 82 -36 61 -79 -11 -22 -10 -22 4
-4 20 25 20 46 0 74 -15 22 -67 31 -78 13z"/>
<path d="M1295 3710 c-4 -6 2 -18 13 -28 11 -9 43 -43 71 -74 27 -32 52 -54
55 -50 2 4 -27 42 -64 85 -38 42 -72 72 -75 67z"/>
<path d="M3656 3623 c-53 -56 -66 -77 -58 -85 9 -9 12 -9 12 0 0 6 29 43 65
81 36 38 62 71 58 74 -4 2 -39 -29 -77 -70z"/>
<path d="M3810 3588 c0 -52 -72 -157 -109 -158 -10 0 -11 -3 -2 -14 9 -11 18
-7 50 23 43 41 88 138 71 155 -7 7 -10 5 -10 -6z"/>
<path d="M1100 3486 c0 -2 7 -7 16 -10 8 -3 12 -2 9 4 -6 10 -25 14 -25 6z"/>
<path d="M3888 3483 c7 -3 16 -2 19 1 4 3 -2 6 -13 5 -11 0 -14 -3 -6 -6z"/>
<path d="M1115 3383 c-44 -2 -84 -9 -90 -15 -7 -7 13 -9 69 -4 43 3 103 6 133
6 34 0 52 4 48 10 -3 6 -23 9 -43 8 -20 -1 -73 -4 -117 -5z"/>
<path d="M2763 3354 c-4 -10 0 -20 10 -26 32 -18 222 -302 214 -320 -1 -2 6 5
16 16 18 19 18 20 -1 27 -19 7 -82 85 -82 102 0 18 81 127 95 127 30 0 120
-23 126 -32 4 -6 16 4 28 20 26 37 26 45 3 38 -10 -3 -100 10 -201 29 -101 19
-187 35 -192 35 -5 0 -12 -7 -16 -16z m137 -51 c47 -9 86 -17 88 -19 5 -4 -70
-114 -78 -114 -3 0 -30 34 -59 75 -28 41 -48 75 -44 75 4 0 46 -7 93 -17z"/>
<path d="M1185 3260 c3 -5 8 -10 11 -10 2 0 4 5 4 10 0 6 -5 10 -11 10 -5 0
-7 -4 -4 -10z"/>
<path d="M925 3171 c12 -12 218 -17 222 -5 2 5 -50 10 -114 12 -80 2 -115 0
-108 -7z"/>
<path d="M2575 3079 c-108 -164 -99 -144 -71 -163 l25 -16 -6 34 c-3 21 1 45
11 65 l17 32 37 -22 c97 -59 249 -164 263 -181 15 -20 16 -19 37 13 l21 34
-22 3 c-12 2 -87 46 -165 98 -129 85 -142 97 -131 112 25 32 54 52 79 52 l25
1 -25 14 c-14 8 -27 14 -30 14 -3 1 -32 -40 -65 -90z"/>
<path d="M1066 3027 c3 -10 9 -15 12 -12 3 3 0 11 -7 18 -10 9 -11 8 -5 -6z"/>
<path d="M4121 2990 c10 -28 20 -63 20 -78 2 -24 2 -24 6 -4 5 24 -23 118 -37
127 -4 3 0 -18 11 -45z"/>
<path d="M850 2990 c0 -5 7 -7 15 -4 8 4 15 8 15 10 0 2 -7 4 -15 4 -8 0 -15
-4 -15 -10z"/>
<path d="M837 2933 c-3 -5 27 -17 66 -27 40 -10 84 -24 99 -31 21 -10 28 -10
31 -1 3 8 -23 20 -79 34 -46 13 -90 25 -98 28 -8 3 -16 1 -19 -3z"/>
<path d="M820 2876 c0 -8 4 -17 9 -20 5 -4 7 3 4 14 -6 23 -13 26 -13 6z"/>
<path d="M4149 2835 c-3 -27 -3 -59 1 -69 7 -19 7 -19 15 0 12 29 14 45 5 39
-5 -3 -10 14 -12 37 l-3 43 -6 -50z"/>
<path d="M2412 2828 l-21 -32 32 -11 c41 -14 273 -170 285 -191 7 -13 12 -10
30 20 18 31 19 36 5 36 -21 0 -280 167 -297 192 -13 18 -14 17 -34 -14z"/>
<path d="M4230 2773 c13 -18 25 -33 27 -33 8 0 -17 38 -33 51 -11 9 -9 2 6
-18z"/>
<path d="M4170 2766 c0 -2 8 -10 18 -17 15 -13 16 -12 3 4 -13 16 -21 21 -21
13z"/>
<path d="M802 2718 c-7 -7 -12 -16 -12 -22 0 -6 5 -5 12 2 16 16 50 15 67 0
11 -11 11 -9 2 10 -13 24 -49 30 -69 10z"/>
<path d="M946 2714 c-43 -15 -66 -32 -66 -46 0 -5 7 -2 15 6 9 9 34 20 55 26
22 6 42 15 45 20 8 13 -1 12 -49 -6z"/>
<path d="M4250 2720 c-13 -8 -12 -10 3 -10 9 0 17 5 17 10 0 12 -1 12 -20 0z"/>
<path d="M4161 2710 c0 -8 4 -22 9 -30 12 -18 12 -2 0 25 -6 13 -9 15 -9 5z"/>
<path d="M2311 2671 c-26 -36 -26 -41 -2 -41 23 0 316 -192 324 -212 4 -9 6
-9 6 3 2 35 -49 87 -159 161 -63 43 -123 87 -132 98 -16 20 -17 20 -37 -9z"/>
<path d="M4035 2642 c-28 -26 -41 -39 -29 -28 l23 18 4 -38 4 -39 1 39 c1 28
10 48 29 68 42 44 23 32 -32 -20z"/>
<path d="M780 2627 c0 -8 6 -14 13 -14 18 2 157 -14 172 -19 7 -3 15 1 17 8 4
9 -3 13 -21 14 -41 1 -165 16 -173 21 -5 2 -8 -2 -8 -10z"/>
<path d="M4190 2636 c0 -3 23 -33 50 -67 28 -35 53 -73 56 -86 4 -13 10 -21
14 -18 5 3 17 -5 27 -17 10 -13 32 -34 48 -48 l30 -25 -22 26 c-26 29 -28 36
-10 42 6 2 2 3 -10 1 -28 -5 -92 64 -71 77 10 7 10 9 -2 10 -8 0 -4 5 10 9
l25 8 -27 1 c-16 1 -28 7 -28 14 0 9 -3 9 -9 -1 -6 -10 -17 -2 -41 32 -31 43
-40 52 -40 42z"/>
<path d="M4318 2583 c7 -3 16 -2 19 1 4 3 -2 6 -13 5 -11 0 -14 -3 -6 -6z"/>
<path d="M3695 2553 c-27 -14 -52 -28 -55 -30 -9 -8 33 -33 54 -32 14 1 10 4
-11 10 -18 5 -33 12 -33 14 0 3 23 16 51 30 50 26 106 30 102 8 -4 -17 21 -22
35 -7 11 12 9 14 -7 14 -11 0 -23 5 -26 10 -11 17 -58 10 -110 -17z"/>
<path d="M4062 2560 c0 -14 2 -19 5 -12 2 6 2 18 0 25 -3 6 -5 1 -5 -13z"/>
<path d="M4151 2530 c0 -30 -3 -77 -5 -105 -2 -27 -2 -38 1 -22 2 15 8 25 13
22 4 -3 6 5 2 17 -5 21 -4 22 14 8 18 -14 18 -14 4 4 -8 11 -18 44 -21 75 l-6
56 -2 -55z"/>
<path d="M3920 2556 c0 -2 9 -6 20 -9 11 -3 18 -1 14 4 -5 9 -34 13 -34 5z"/>
<path d="M4001 2534 c0 -11 3 -14 6 -6 3 7 2 16 -1 19 -3 4 -6 -2 -5 -13z"/>
<path d="M4405 2530 c-3 -5 1 -10 10 -10 9 0 13 5 10 10 -3 6 -8 10 -10 10 -2
0 -7 -4 -10 -10z"/>
<path d="M4045 2510 c-6 -18 -9 -19 -22 -8 -15 12 -15 10 -3 -11 l13 -25 14
28 c8 15 12 30 10 33 -3 2 -8 -5 -12 -17z"/>
<path d="M3799 2503 c-13 -16 -12 -17 4 -4 16 13 21 21 13 21 -2 0 -10 -8 -17
-17z"/>
<path d="M4343 2513 c9 -2 23 -2 30 0 6 3 -1 5 -18 5 -16 0 -22 -2 -12 -5z"/>
<path d="M819 2476 c-28 -16 -54 -67 -46 -88 3 -7 6 -4 6 8 1 28 40 63 85 75
29 8 43 7 69 -6 30 -15 31 -15 16 1 -23 22 -97 28 -130 10z"/>
<path d="M3733 2483 c9 -2 25 -2 35 0 9 3 1 5 -18 5 -19 0 -27 -2 -17 -5z"/>
<path d="M3843 2469 c-46 -29 -41 -36 5 -8 46 28 47 29 36 29 -5 0 -24 -10
-41 -21z"/>
<path d="M3910 2483 c18 -8 11 -31 -16 -52 -15 -12 -23 -21 -18 -21 5 0 20 9
33 19 24 18 26 52 3 57 -7 1 -8 0 -2 -3z"/>
<path d="M4213 2457 c12 -13 24 -22 26 -20 6 4 -30 43 -40 43 -5 0 2 -10 14
-23z"/>
<path d="M3770 2436 c0 -2 7 -7 16 -10 8 -3 12 -2 9 4 -6 10 -25 14 -25 6z"/>
<path d="M4431 2414 c13 -17 26 -30 28 -27 3 2 -8 16 -24 31 l-28 27 24 -31z"/>
<path d="M2140 2401 c0 -10 8 -25 19 -32 26 -19 191 -264 200 -296 l7 -26 17
27 c17 25 17 26 -3 26 -12 0 -32 18 -54 52 l-35 51 28 41 c36 53 43 66 38 66
-3 0 -19 -23 -37 -50 -18 -28 -34 -49 -35 -48 -14 15 -104 152 -102 155 6 5
177 -29 177 -36 0 -3 25 -7 56 -8 31 -2 68 -9 83 -16 26 -13 28 -12 50 21 21
31 21 33 3 28 -10 -4 -102 10 -204 29 -102 19 -191 35 -197 35 -6 0 -11 -8
-11 -19z"/>
<path d="M3820 2410 c8 -5 22 -9 30 -9 10 0 8 3 -5 9 -27 12 -43 12 -25 0z"/>
<path d="M4241 2404 c0 -11 3 -14 6 -6 3 7 2 16 -1 19 -3 4 -6 -2 -5 -13z"/>
<path d="M4321 2404 c0 -11 3 -14 6 -6 3 7 2 16 -1 19 -3 4 -6 -2 -5 -13z"/>
<path d="M3910 2385 c0 -23 3 -27 10 -15 8 12 10 8 11 -15 1 -23 3 -25 6 -8 2
13 -3 33 -11 45 l-16 22 0 -29z"/>
<path d="M4187 2389 c12 -12 24 -21 27 -18 2 2 -8 13 -22 23 l-27 19 22 -24z"/>
<path d="M4351 2389 c-1 -9 7 -23 17 -30 15 -12 16 -12 6 1 -6 8 -14 22 -17
30 -5 13 -6 12 -6 -1z"/>
<path d="M2612 2366 c-23 -30 -25 -47 -5 -53 16 -6 35 33 31 60 -3 21 -4 20
-26 -7z"/>
<path d="M968 2363 c-9 -34 -66 -64 -115 -61 -48 4 -47 -8 2 -18 20 -3 44 -1
61 8 33 16 68 61 62 79 -3 8 -7 5 -10 -8z"/>
<path d="M4331 2363 c-1 -12 -5 -25 -11 -28 -5 -3 -10 -12 -10 -18 0 -7 6 -3
12 8 12 19 12 19 19 -5 l7 -25 1 24 c1 17 5 21 14 15 7 -5 6 -2 -3 6 -10 9
-19 22 -23 30 -3 10 -6 8 -6 -7z"/>
<path d="M4098 2353 c7 -3 16 -2 19 1 4 3 -2 6 -13 5 -11 0 -14 -3 -6 -6z"/>
<path d="M4130 2348 c0 -9 -6 -19 -12 -21 -10 -4 -10 -6 0 -6 9 -1 10 -6 3
-19 -5 -10 -6 -24 -2 -31 5 -8 11 4 15 34 4 26 5 49 2 53 -3 3 -6 -2 -6 -10z"/>
<path d="M4024 2305 c-15 -20 -25 -37 -23 -39 2 -2 16 14 31 35 35 49 28 51
-8 4z"/>
<path d="M4468 2313 c7 -3 16 -2 19 1 4 3 -2 6 -13 5 -11 0 -14 -3 -6 -6z"/>
<path d="M4382 2256 l-2 -60 -32 29 -33 30 32 -35 c18 -19 35 -31 38 -28 3 3
4 32 2 64 l-3 59 -2 -59z"/>
<path d="M3890 2270 c-12 -16 -19 -30 -16 -30 2 0 14 14 26 30 12 17 19 30 16
30 -2 0 -14 -13 -26 -30z"/>
<path d="M3861 2274 c0 -11 3 -14 6 -6 3 7 2 16 -1 19 -3 4 -6 -2 -5 -13z"/>
<path d="M4080 2270 c-9 -6 -10 -10 -3 -10 6 0 15 5 18 10 8 12 4 12 -15 0z"/>
<path d="M4038 2253 c7 -3 16 -2 19 1 4 3 -2 6 -13 5 -11 0 -14 -3 -6 -6z"/>
<path d="M4106 2213 c-6 -35 -19 -53 -73 -104 -49 -46 -68 -58 -74 -47 -7 10
-9 8 -9 -6 0 -16 -2 -17 -17 -5 -16 13 -17 12 -5 -2 11 -15 6 -20 -40 -43 -28
-14 -63 -26 -77 -26 -13 0 -21 -3 -18 -7 11 -10 57 -10 57 0 0 5 7 7 15 3 8
-3 15 -1 15 4 0 17 18 11 23 -7 2 -10 3 -8 2 4 -1 16 9 30 39 49 23 15 65 50
94 78 46 44 53 47 47 25 -4 -18 -1 -30 11 -40 16 -13 16 -12 6 7 -14 26 3 98
20 88 7 -5 8 -2 3 6 -5 8 -1 18 10 27 16 11 16 13 3 13 -9 0 -18 6 -21 13 -2
6 -7 -7 -11 -30z"/>
<path d="M4160 2216 c0 -2 8 -10 18 -17 15 -13 16 -12 3 4 -13 16 -21 21 -21
13z"/>
<path d="M1986 2185 l-18 -27 61 -125 61 -125 -140 3 c-130 4 -140 2 -154 -16
-21 -27 -20 -38 2 -31 22 7 241 -127 284 -174 l27 -29 15 24 c21 32 21 32 -12
27 -21 -3 -52 13 -137 68 -61 40 -114 77 -120 82 -7 7 36 8 128 3 75 -4 137
-4 137 -1 0 4 -27 61 -61 127 -33 67 -56 119 -51 118 36 -14 253 -168 258
-182 5 -16 9 -14 30 17 28 40 29 47 10 40 -7 -3 -76 37 -152 88 -100 67 -140
100 -144 117 l-6 24 -18 -28z"/>
<path d="M4130 2206 c0 -2 8 -10 18 -17 15 -13 16 -12 3 4 -13 16 -21 21 -21
13z"/>
<path d="M927 2182 c-9 -10 -20 -34 -23 -53 -10 -53 -22 -69 -52 -69 -24 -1
-25 -2 -9 -11 30 -17 66 13 73 63 9 55 36 82 67 68 21 -11 21 -11 3 4 -26 21
-39 20 -59 -2z"/>
<path d="M4152 2145 c15 -16 29 -27 31 -24 3 2 -10 15 -27 28 l-31 24 27 -28z"/>
<path d="M806 2144 c-9 -24 -2 -26 12 -4 7 11 8 20 3 20 -5 0 -12 -7 -15 -16z"/>
<path d="M4200 2151 c0 -6 4 -13 10 -16 6 -3 7 1 4 9 -7 18 -14 21 -14 7z"/>
<path d="M999 2095 c-12 -26 -12 -32 -2 -28 12 5 30 50 22 57 -2 2 -11 -11
-20 -29z"/>
<path d="M3790 2113 c0 -13 69 -73 85 -73 5 0 -7 11 -27 25 -20 14 -42 33 -47
43 -6 9 -11 12 -11 5z"/>
<path d="M3833 2113 c15 -2 37 -2 50 0 12 2 0 4 -28 4 -27 0 -38 -2 -22 -4z"/>
<path d="M4200 2116 c0 -2 7 -6 15 -10 8 -3 15 -1 15 4 0 6 -7 10 -15 10 -8 0
-15 -2 -15 -4z"/>
<path d="M4057 2038 c-9 -29 -15 -54 -13 -56 2 -2 12 20 21 48 9 28 15 53 13
55 -2 3 -12 -19 -21 -47z"/>
<path d="M3546 2041 c-4 -5 3 -7 14 -4 23 6 26 13 6 13 -8 0 -17 -4 -20 -9z"/>
<path d="M4127 2035 c3 -9 -3 -26 -13 -38 -16 -18 -16 -20 -1 -8 15 12 17 11
18 -5 0 -16 2 -15 10 4 6 15 5 30 -1 43 -13 23 -22 25 -13 4z"/>
<path d="M3509 2013 c-13 -16 -12 -17 4 -4 9 7 17 15 17 17 0 8 -8 3 -21 -13z"/>
<path d="M3650 2026 c0 -2 8 -10 18 -17 15 -13 16 -12 3 4 -13 16 -21 21 -21
13z"/>
<path d="M3588 1993 c7 -3 16 -2 19 1 4 3 -2 6 -13 5 -11 0 -14 -3 -6 -6z"/>
<path d="M4150 1974 c0 -14 4 -23 10 -19 6 4 10 -8 11 -27 1 -31 2 -31 8 -8 5
15 3 36 -6 53 -17 34 -23 34 -23 1z"/>
<path d="M3638 1983 c7 -3 16 -2 19 1 4 3 -2 6 -13 5 -11 0 -14 -3 -6 -6z"/>
<path d="M3680 1974 c0 -27 -79 -33 -120 -9 -14 8 -32 14 -40 14 -8 1 5 -8 29
-19 51 -23 99 -26 127 -6 11 8 31 16 44 18 22 3 22 4 -7 9 -22 4 -33 2 -33 -7z"/>
<path d="M1020 1973 c8 -3 24 -13 34 -22 18 -15 18 -15 5 7 -8 12 -23 22 -34
21 -14 0 -16 -2 -5 -6z"/>
<path d="M4018 1932 c-13 -34 -19 -39 -44 -37 -17 1 -20 0 -6 -2 12 -2 22 -9
22 -14 0 -6 -6 -7 -12 -3 -7 4 -10 4 -6 -1 4 -4 2 -15 -5 -23 -9 -13 -9 -14 1
-8 17 10 15 2 -8 -43 -24 -49 -14 -95 32 -137 l32 -29 -33 39 c-28 34 -32 44
-28 80 3 22 22 78 42 124 20 46 35 85 33 88 -3 2 -12 -13 -20 -34z"/>
<path d="M4084 1956 c-3 -8 -4 -27 -2 -43 3 -23 5 -20 9 15 5 43 2 53 -7 28z"/>
<path d="M3736 1951 c-4 -5 4 -7 16 -4 l23 6 -21 -24 c-35 -40 -40 -56 -6 -20
18 18 29 37 26 42 -7 12 -31 12 -38 0z"/>
<path d="M3832 1915 c-2 -53 9 -71 27 -42 13 20 13 21 -2 9 -14 -12 -16 -8
-20 30 l-4 43 -1 -40z"/>
<path d="M4126 1908 l-18 -33 21 25 c18 22 26 40 18 40 -1 0 -11 -15 -21 -32z"/>
<path d="M882 1921 c-8 -4 -12 -18 -10 -31 3 -20 4 -20 15 9 6 17 11 31 10 31
-1 0 -8 -4 -15 -9z"/>
<path d="M1080 1882 c0 -37 -51 -84 -101 -92 l-44 -7 46 -2 c58 -1 96 25 105
75 3 19 4 38 0 41 -3 4 -6 -3 -6 -15z"/>
<path d="M3749 1877 c-14 -12 -35 -28 -45 -35 -11 -7 -7 -6 11 2 17 8 39 23
49 35 25 27 18 26 -15 -2z"/>
<path d="M4214 1856 c-1 -24 0 -30 3 -13 3 16 9 25 15 21 6 -4 8 -2 4 4 -3 5
-1 12 6 14 7 3 4 7 -7 10 -17 4 -20 -1 -21 -36z"/>
<path d="M3904 1868 l-19 -23 23 19 c12 11 22 21 22 23 0 8 -8 2 -26 -19z"/>
<path d="M4090 1870 c0 -5 5 -10 11 -10 5 0 7 5 4 10 -3 6 -8 10 -11 10 -2 0
-4 -4 -4 -10z"/>
<path d="M4260 1876 c0 -2 8 -10 18 -17 15 -13 16 -12 3 4 -13 16 -21 21 -21
13z"/>
<path d="M3867 1844 c-21 -21 43 -33 72 -15 10 6 0 8 -29 4 -31 -4 -41 -3 -36
5 8 13 3 16 -7 6z"/>
<path d="M4172 1774 c2 -63 2 -65 5 -16 3 37 7 50 16 45 7 -4 5 2 -3 13 -8 10
-16 21 -17 23 -2 2 -2 -27 -1 -65z"/>
<path d="M4303 1785 c0 -22 2 -30 4 -17 2 12 2 30 0 40 -3 9 -5 -1 -4 -23z"/>
<path d="M4139 1793 c-13 -16 -12 -17 4 -4 16 13 21 21 13 21 -2 0 -10 -8 -17
-17z"/>
<path d="M4265 1750 c21 -22 41 -40 44 -40 3 0 -13 18 -34 40 -21 22 -41 40
-44 40 -3 0 13 -18 34 -40z"/>
<path d="M4007 1760 c10 -11 19 -20 21 -20 1 0 -2 9 -8 20 -6 11 -15 20 -20
20 -6 0 -2 -9 7 -20z"/>
<path d="M3731 1743 c2 -24 2 -25 6 -5 3 13 9 19 15 16 7 -4 8 -2 4 4 -13 21
-26 13 -25 -15z"/>
<path d="M4122 1740 c0 -19 2 -27 5 -17 2 9 2 25 0 35 -3 9 -5 1 -5 -18z"/>
<path d="M3970 1751 c0 -6 4 -13 10 -16 6 -3 7 1 4 9 -7 18 -14 21 -14 7z"/>
<path d="M3550 1738 c0 -7 12 -14 26 -14 28 -2 28 -1 -3 15 -18 9 -23 9 -23
-1z"/>
<path d="M3920 1735 c-8 -9 -8 -15 -2 -15 12 0 26 19 19 26 -2 2 -10 -2 -17
-11z"/>
<path d="M3318 1723 c7 -3 16 -2 19 1 4 3 -2 6 -13 5 -11 0 -14 -3 -6 -6z"/>
<path d="M3359 1708 c11 -15 11 -21 0 -35 -11 -15 -9 -14 9 1 12 11 21 20 20
20 -2 1 -12 8 -23 16 -19 14 -19 14 -6 -2z"/>
<path d="M3610 1716 c0 -3 9 -10 20 -16 11 -6 20 -8 20 -6 0 3 -9 10 -20 16
-11 6 -20 8 -20 6z"/>
<path d="M4031 1704 c0 -11 3 -14 6 -6 3 7 2 16 -1 19 -3 4 -6 -2 -5 -13z"/>
<path d="M3220 1701 c0 -6 4 -12 8 -15 5 -3 9 1 9 9 0 8 -4 15 -9 15 -4 0 -8
-4 -8 -9z"/>
<path d="M3860 1700 c-9 -6 -10 -10 -3 -10 6 0 15 5 18 10 8 12 4 12 -15 0z"/>
<path d="M3856 1620 c-58 -88 -60 -90 -80 -72 -18 14 -19 15 -8 0 9 -11 10
-18 2 -23 -6 -3 -8 -11 -4 -16 3 -5 -24 -40 -59 -76 -60 -62 -67 -66 -84 -53
-16 14 -17 13 -5 -2 11 -14 10 -18 -7 -30 -12 -8 -18 -17 -15 -21 11 -11 -157
-127 -184 -127 -19 0 -23 -3 -14 -9 10 -6 -4 -19 -50 -48 -152 -95 -220 -130
-203 -104 3 5 0 13 -6 17 -8 4 -9 3 -5 -4 4 -7 1 -12 -6 -12 -10 0 -10 -2 1
-9 10 -6 -5 -19 -53 -46 l-67 -37 -20 26 c-11 14 -28 26 -37 25 -12 0 -10 -3
6 -9 12 -5 25 -16 28 -25 7 -18 -29 -52 -66 -62 -13 -3 -33 -15 -44 -25 -11
-10 -24 -18 -30 -18 -5 0 -7 -3 -4 -6 4 -3 18 2 33 12 23 15 28 15 36 3 7 -11
9 -11 9 4 0 19 64 52 81 42 5 -4 8 -1 7 6 -3 13 150 104 159 95 3 -3 13 3 22
13 26 29 111 74 111 59 0 -7 6 -4 12 7 11 19 11 19 19 0 7 -18 8 -18 8 -2 1
12 5 16 14 11 9 -6 9 -5 -1 8 -10 13 -4 20 42 51 37 24 56 32 60 24 3 -8 5 -6
5 3 1 9 24 33 51 53 l51 38 -6 -28 -6 -28 15 30 c12 25 15 26 16 10 1 -20 2
-20 9 0 8 19 8 19 19 0 6 -11 12 -15 12 -9 0 15 -25 36 -33 27 -4 -3 -7 -2 -7
3 0 6 27 36 60 67 59 57 60 57 60 29 0 -15 7 -37 16 -48 15 -18 15 -18 5 3
-13 27 -14 80 -2 87 5 4 7 -4 5 -16 -4 -21 -4 -21 4 -3 9 19 9 19 16 -3 4 -13
10 -21 13 -18 3 3 -2 17 -11 31 -16 24 -15 26 44 101 l60 75 0 -135 c0 -75 3
-136 8 -136 4 0 5 27 4 60 -3 55 -2 61 19 68 l23 9 -22 5 c-20 6 -22 13 -22
78 0 54 5 79 19 98 20 30 43 72 39 72 -2 0 -30 -40 -62 -90z"/>
<path d="M3794 1682 c-10 -15 -13 -15 -30 -2 -18 13 -18 13 -2 -5 13 -14 22
-16 37 -9 13 5 18 14 13 21 -6 9 -11 8 -18 -5z"/>
<path d="M4131 1684 c0 -11 3 -14 6 -6 3 7 2 16 -1 19 -3 4 -6 -2 -5 -13z"/>
<path d="M3587 1670 c20 -22 21 -24 4 -39 -9 -9 -11 -12 -4 -7 8 5 29 9 48 8
28 -1 35 2 35 18 0 10 -4 21 -9 24 -5 3 -8 -2 -7 -11 2 -27 -20 -25 -55 3 -27
22 -29 22 -12 4z"/>
<path d="M3257 1669 c7 -7 15 -10 18 -7 3 3 -2 9 -12 12 -14 6 -15 5 -6 -5z"/>
<path d="M3440 1676 c0 -2 7 -7 16 -10 8 -3 12 -2 9 4 -6 10 -25 14 -25 6z"/>
<path d="M4037 1650 c-3 -11 -1 -20 4 -20 5 0 9 9 9 20 0 11 -2 20 -4 20 -2 0
-6 -9 -9 -20z"/>
<path d="M4165 1644 c-9 -15 -12 -23 -6 -20 11 7 35 46 28 46 -3 0 -12 -12
-22 -26z"/>
<path d="M3738 1653 c7 -3 16 -2 19 1 4 3 -2 6 -13 5 -11 0 -14 -3 -6 -6z"/>
<path d="M3507 1639 c7 -7 15 -10 18 -7 3 3 -2 9 -12 12 -14 6 -15 5 -6 -5z"/>
<path d="M3688 1643 c6 -2 18 -2 25 0 6 3 1 5 -13 5 -14 0 -19 -2 -12 -5z"/>
<path d="M1160 1552 c-67 -110 -63 -102 -53 -102 5 0 28 33 52 73 25 39 51 79
58 89 8 9 10 19 5 22 -5 3 -33 -34 -62 -82z"/>
<path d="M3388 1623 c7 -3 16 -2 19 1 4 3 -2 6 -13 5 -11 0 -14 -3 -6 -6z"/>
<path d="M3339 1603 c-13 -17 -13 -17 6 -3 11 8 22 16 24 17 2 2 0 3 -6 3 -6
0 -17 -8 -24 -17z"/>
<path d="M3415 1609 c-3 -4 1 -9 9 -12 8 -3 17 0 19 7 5 13 -21 18 -28 5z"/>
<path d="M3300 1580 c-12 -8 -12 -10 2 -15 10 -4 23 -5 30 -2 8 3 6 6 -5 6
-10 1 -15 6 -12 11 8 12 4 12 -15 0z"/>
<path d="M3479 1559 c-22 -19 -23 -19 -2 -10 16 8 22 8 25 -1 3 -8 7 -6 11 5
10 26 -8 29 -34 6z"/>
<path d="M3693 1573 c9 -2 23 -2 30 0 6 3 -1 5 -18 5 -16 0 -22 -2 -12 -5z"/>
<path d="M3645 1560 c-3 -6 1 -7 9 -4 18 7 21 14 7 14 -6 0 -13 -4 -16 -10z"/>
<path d="M3368 1553 c7 -3 16 -2 19 1 4 3 -2 6 -13 5 -11 0 -14 -3 -6 -6z"/>
<path d="M3522 1530 c0 -14 2 -19 5 -12 2 6 2 18 0 25 -3 6 -5 1 -5 -13z"/>
<path d="M3425 1520 c-10 -11 -23 -20 -30 -20 -6 0 -12 -7 -12 -15 0 -10 4
-12 13 -4 8 7 14 6 17 -1 3 -6 4 -5 3 2 -2 7 6 23 17 36 11 12 18 22 15 22 -3
0 -13 -9 -23 -20z"/>
<path d="M3600 1525 c-7 -9 -8 -15 -2 -15 5 0 12 7 16 15 3 8 4 15 2 15 -2 0
-9 -7 -16 -15z"/>
<path d="M3471 1514 c0 -11 3 -14 6 -6 3 7 2 16 -1 19 -3 4 -6 -2 -5 -13z"/>
<path d="M1296 1502 c-3 -5 1 -9 9 -9 8 0 12 4 9 9 -3 4 -7 8 -9 8 -2 0 -6 -4
-9 -8z"/>
<path d="M3506 1483 c-6 -15 -9 -15 -17 -3 -9 13 -10 13 -7 1 6 -22 25 -24 32
-5 4 9 5 19 2 21 -2 2 -7 -4 -10 -14z"/>
<path d="M3663 1493 c9 -2 25 -2 35 0 9 3 1 5 -18 5 -19 0 -27 -2 -17 -5z"/>
<path d="M3336 1459 c-14 -17 -26 -38 -25 -47 0 -11 4 -8 10 8 6 14 20 35 31
47 12 13 19 23 16 23 -4 0 -18 -14 -32 -31z"/>
<path d="M3875 1480 c-3 -6 1 -7 9 -4 18 7 21 14 7 14 -6 0 -13 -4 -16 -10z"/>
<path d="M3920 1486 c0 -2 7 -7 16 -10 8 -3 12 -2 9 4 -6 10 -25 14 -25 6z"/>
<path d="M3396 1432 l-19 -27 24 22 c12 12 21 24 18 27 -2 2 -13 -8 -23 -22z"/>
<path d="M3878 1433 c6 -2 18 -2 25 0 6 3 1 5 -13 5 -14 0 -19 -2 -12 -5z"/>
<path d="M1374 1417 c-41 -23 -148 -127 -138 -135 5 -4 44 28 86 71 42 42 76
77 75 77 -1 -1 -11 -6 -23 -13z"/>
<path d="M1430 1410 c0 -5 5 -10 11 -10 5 0 7 5 4 10 -3 6 -8 10 -11 10 -2 0
-4 -4 -4 -10z"/>
<path d="M3310 1380 c-9 -6 -10 -10 -3 -10 6 0 15 5 18 10 8 12 4 12 -15 0z"/>
<path d="M3480 1380 c-8 -5 -10 -10 -5 -10 6 0 17 5 25 10 8 5 11 10 5 10 -5
0 -17 -5 -25 -10z"/>
<path d="M3440 1369 c0 -5 5 -7 10 -4 6 3 10 8 10 11 0 2 -4 4 -10 4 -5 0 -10
-5 -10 -11z"/>
<path d="M3930 1360 c-9 -6 -10 -10 -3 -10 6 0 15 5 18 10 8 12 4 12 -15 0z"/>
<path d="M3204 1338 c-4 -7 -4 -10 1 -6 5 5 24 -4 43 -19 20 -15 32 -22 28
-15 -3 6 -20 20 -36 32 -22 15 -30 17 -36 8z"/>
<path d="M1460 1315 c-8 -13 -39 -49 -69 -80 -29 -30 -51 -59 -47 -62 3 -4 39
28 79 71 49 52 69 80 62 86 -7 6 -16 1 -25 -15z"/>
<path d="M3911 1328 c-1 -10 20 -39 45 -65 26 -26 42 -38 36 -26 -9 16 -9 23
1 26 6 3 2 6 -10 6 -30 1 -38 19 -19 40 9 10 16 22 16 27 0 4 -7 -2 -16 -14
-19 -28 -32 -28 -44 1 -7 17 -9 18 -9 5z"/>
<path d="M3533 1323 c9 -2 25 -2 35 0 9 3 1 5 -18 5 -19 0 -27 -2 -17 -5z"/>
<path d="M3211 1294 c0 -11 3 -14 6 -6 3 7 2 16 -1 19 -3 4 -6 -2 -5 -13z"/>
<path d="M3068 1263 c6 -2 18 -2 25 0 6 3 1 5 -13 5 -14 0 -19 -2 -12 -5z"/>
<path d="M3127 1258 c31 -15 38 -40 16 -56 -11 -9 -12 -13 -4 -10 8 2 19 12
25 22 9 14 6 21 -13 37 -13 10 -28 19 -35 18 -6 0 -1 -5 11 -11z"/>
<path d="M3815 1260 c-3 -5 0 -7 8 -4 8 3 18 0 22 -5 3 -6 11 -9 16 -5 5 3 7
10 4 15 -8 12 -42 12 -50 -1z"/>
<path d="M1556 1206 c-5 -35 -3 -62 4 -73 10 -16 10 -15 5 4 -3 12 -1 41 5 64
7 26 8 45 2 51 -6 6 -12 -11 -16 -46z"/>
<path d="M3260 1240 c13 -25 2 -26 -16 -2 -12 16 -12 16 -11 -3 2 -20 19 -33
45 -34 9 -1 9 6 -3 29 -9 17 -18 30 -21 30 -2 0 0 -9 6 -20z"/>
<path d="M4021 1240 c14 -31 19 -36 19 -24 0 6 -7 19 -16 30 -14 18 -14 18 -3
-6z"/>
<path d="M3291 1234 c0 -11 3 -14 6 -6 3 7 2 16 -1 19 -3 4 -6 -2 -5 -13z"/>
<path d="M2981 1237 c2 -1 13 -9 24 -17 19 -14 19 -14 6 3 -7 9 -18 17 -24 17
-6 0 -8 -1 -6 -3z"/>
<path d="M3611 1223 c-1 -6 -4 -20 -7 -30 -5 -17 -5 -17 6 0 6 10 9 23 6 30
-3 9 -5 9 -5 0z"/>
<path d="M3770 1211 c-19 -36 -10 -40 35 -14 50 27 62 42 15 18 -36 -19 -44
-19 -36 0 8 22 -1 19 -14 -4z"/>
<path d="M3542 1195 c0 -16 2 -22 5 -12 2 9 2 23 0 30 -3 6 -5 -1 -5 -18z"/>
<path d="M3845 1183 c-12 -17 -13 -24 -4 -17 8 6 19 13 26 15 7 2 9 9 4 17 -6
10 -13 6 -26 -15z"/>
<path d="M3979 1191 c13 -12 28 -21 34 -21 12 0 11 0 -28 24 l-30 17 24 -20z"/>
<path d="M3308 1193 c6 -2 18 -2 25 0 6 3 1 5 -13 5 -14 0 -19 -2 -12 -5z"/>
<path d="M4037 1180 c-3 -11 -1 -20 4 -20 5 0 9 9 9 20 0 11 -2 20 -4 20 -2 0
-6 -9 -9 -20z"/>
<path d="M1607 1103 c-33 -46 -56 -87 -53 -90 3 -4 7 -4 9 -2 45 59 115 169
109 172 -4 3 -33 -33 -65 -80z"/>
<path d="M3098 1183 c7 -3 16 -2 19 1 4 3 -2 6 -13 5 -11 0 -14 -3 -6 -6z"/>
<path d="M3882 1145 c0 -16 2 -22 5 -12 2 9 2 23 0 30 -3 6 -5 -1 -5 -18z"/>
<path d="M3442 1140 c0 -14 2 -19 5 -12 2 6 2 18 0 25 -3 6 -5 1 -5 -13z"/>
<path d="M3550 1144 c0 -6 7 -19 15 -30 8 -10 14 -14 14 -9 0 6 -6 19 -14 29
-8 11 -15 15 -15 10z"/>
<path d="M3821 1134 c0 -11 3 -14 6 -6 3 7 2 16 -1 19 -3 4 -6 -2 -5 -13z"/>
<path d="M1490 1115 c-14 -17 -6 -48 18 -66 14 -11 15 -11 5 1 -19 20 -16 57
5 69 15 9 15 10 1 11 -9 0 -22 -7 -29 -15z"/>
<path d="M1748 1023 c-6 -139 7 -156 16 -22 4 56 8 107 9 112 1 5 -3 11 -9 14
-8 3 -13 -29 -16 -104z"/>
<path d="M3830 1093 c0 -6 8 -17 18 -24 16 -13 16 -13 2 6 -8 11 -16 22 -17
24 -2 2 -3 0 -3 -6z"/>
<path d="M3035 1050 c21 -23 34 -28 16 -6 -10 12 -7 15 16 19 22 3 20 4 -11 6
-38 1 -39 1 -21 -19z"/>
<path d="M3291 1054 c0 -11 3 -14 6 -6 3 7 2 16 -1 19 -3 4 -6 -2 -5 -13z"/>
<path d="M1895 1050 c-3 -5 -1 -10 4 -10 6 0 11 5 11 10 0 6 -2 10 -4 10 -3 0
-8 -4 -11 -10z"/>
<path d="M3329 1023 c-13 -16 -12 -17 4 -4 16 13 21 21 13 21 -2 0 -10 -8 -17
-17z"/>
<path d="M3442 998 c-1 -25 -7 -38 -19 -41 -16 -4 -15 -5 1 -6 20 -1 20 -1 0
-16 -19 -15 -19 -15 1 -8 l20 6 -20 -24 c-15 -18 -16 -20 -2 -10 15 12 17 10
17 -20 0 -19 5 -41 10 -49 7 -11 8 -5 3 19 -5 28 -3 33 8 26 11 -7 12 -6 2 6
-7 8 -14 46 -16 84 -1 39 -4 53 -5 33z"/>
<path d="M1977 947 c-10 -39 -24 -85 -32 -100 -13 -25 -12 -28 2 -25 10 2 22
27 33 73 10 39 23 82 29 98 8 20 8 27 -2 27 -7 0 -20 -32 -30 -73z"/>
<path d="M3291 1010 c0 -8 3 -21 8 -28 7 -11 9 -10 14 3 4 9 3 13 -2 10 -5 -3
-12 3 -14 12 -3 13 -5 14 -6 3z"/>
<path d="M2875 980 c10 -11 20 -20 22 -20 2 0 -2 9 -9 20 -7 11 -17 20 -22 20
-5 0 -1 -9 9 -20z"/>
<path d="M3160 962 c0 -17 -6 -22 -24 -22 -14 0 -27 -4 -30 -9 -4 -5 2 -7 13
-4 27 7 38 -17 15 -35 -15 -12 -16 -14 -2 -9 9 3 18 1 21 -6 2 -7 7 13 10 42
4 30 4 57 2 60 -3 2 -5 -5 -5 -17z"/>
<path d="M2160 955 c0 -8 2 -15 4 -15 2 0 6 7 10 15 3 8 1 15 -4 15 -6 0 -10
-7 -10 -15z"/>
<path d="M2950 966 c0 -2 7 -7 16 -10 8 -3 12 -2 9 4 -6 10 -25 14 -25 6z"/>
<path d="M2918 948 c5 -5 16 -8 23 -6 8 3 3 7 -10 11 -17 4 -21 3 -13 -5z"/>
<path d="M2069 935 c-8 -7 37 -159 48 -162 5 -2 9 6 9 17 0 11 -3 20 -7 20 -4
0 -13 24 -19 53 -14 58 -23 80 -31 72z"/>
<path d="M3340 910 c-6 -11 -8 -20 -6 -20 3 0 10 9 16 20 6 11 8 20 6 20 -3 0
-10 -9 -16 -20z"/>
<path d="M3460 916 c0 -2 8 -10 18 -17 15 -13 16 -12 3 4 -13 16 -21 21 -21
13z"/>
<path d="M3070 891 c-11 -21 -14 -48 -4 -38 3 3 6 9 6 14 0 4 4 16 9 26 5 9 7
17 5 17 -3 0 -10 -9 -16 -19z"/>
<path d="M3362 879 c-13 -5 -28 -7 -33 -3 -5 3 -9 -2 -9 -10 0 -13 4 -13 38 1
20 8 39 17 41 19 7 7 -13 3 -37 -7z"/>
<path d="M2769 863 c-13 -17 -13 -17 6 -3 11 8 22 16 24 17 2 2 0 3 -6 3 -6 0
-17 -8 -24 -17z"/>
<path d="M2951 864 c0 -11 3 -14 6 -6 3 7 2 16 -1 19 -3 4 -6 -2 -5 -13z"/>
<path d="M3492 855 c0 -16 2 -22 5 -12 2 9 2 23 0 30 -3 6 -5 -1 -5 -18z"/>
<path d="M3001 854 c0 -11 3 -14 6 -6 3 7 2 16 -1 19 -3 4 -6 -2 -5 -13z"/>
<path d="M3125 836 c-17 -12 -16 -13 6 -11 18 1 26 -4 30 -24 l7 -26 1 26 c1
36 -20 53 -44 35z"/>
<path d="M2726 818 c-19 -27 -20 -38 -4 -38 6 0 8 3 5 7 -4 3 0 17 8 30 20 29
11 30 -9 1z"/>
<path d="M2860 810 c-9 -6 -10 -10 -3 -10 6 0 15 5 18 10 8 12 4 12 -15 0z"/>
<path d="M3431 804 c0 -11 3 -14 6 -6 3 7 2 16 -1 19 -3 4 -6 -2 -5 -13z"/>
<path d="M2975 800 c3 -5 8 -10 11 -10 2 0 4 5 4 10 0 6 -5 10 -11 10 -5 0 -7
-4 -4 -10z"/>
<path d="M3126 793 c-6 -14 -5 -15 5 -6 7 7 10 15 7 18 -3 3 -9 -2 -12 -12z"/>
<path d="M3487 790 c-3 -11 -1 -23 4 -26 5 -3 9 6 9 20 0 31 -6 34 -13 6z"/>
<path d="M2748 793 c6 -2 18 -2 25 0 6 3 1 5 -13 5 -14 0 -19 -2 -12 -5z"/>
<path d="M3421 767 c-1 -10 -5 -16 -10 -13 -5 3 -15 -2 -22 -12 -13 -16 -13
-16 5 -2 18 14 18 13 12 -10 l-7 -25 16 25 16 25 -4 -32 c-2 -18 0 -30 5 -27
10 7 9 43 -2 69 -8 18 -9 18 -9 2z"/>
<path d="M3104 737 c3 -10 6 -21 6 -23 0 -13 21 -1 30 19 10 20 10 21 -4 4
-14 -18 -15 -18 -26 0 -11 17 -11 17 -6 0z"/>
<path d="M3371 704 c0 -11 3 -14 6 -6 3 7 2 16 -1 19 -3 4 -6 -2 -5 -13z"/>
<path d="M3381 675 c0 -5 3 -16 8 -24 7 -11 12 -9 22 10 11 21 11 23 -3 11
-13 -10 -17 -10 -21 0 -3 7 -6 9 -6 3z"/>
</g>
</svg>
